<mxfile host="app.diagrams.net" agent="Mozilla/5.0 (Windows NT 10.0; Win64; x64) AppleWebKit/537.36 (KHTML, like Gecko) Chrome/133.0.0.0 Safari/537.36" version="26.1.0">
  <diagram id="C5RBs43oDa-KdzZeNtuy" name="Page-1">
    <mxGraphModel dx="2333" dy="1238" grid="1" gridSize="10" guides="1" tooltips="1" connect="1" arrows="1" fold="1" page="1" pageScale="1" pageWidth="827" pageHeight="1169" math="0" shadow="0">
      <root>
        <mxCell id="WIyWlLk6GJQsqaUBKTNV-0" />
        <mxCell id="WIyWlLk6GJQsqaUBKTNV-1" parent="WIyWlLk6GJQsqaUBKTNV-0" />
        <mxCell id="iXmqzpFQKqinNQqxrl1--34" style="edgeStyle=orthogonalEdgeStyle;rounded=0;orthogonalLoop=1;jettySize=auto;html=1;" parent="WIyWlLk6GJQsqaUBKTNV-1" source="iXmqzpFQKqinNQqxrl1--1" target="iXmqzpFQKqinNQqxrl1--32" edge="1">
          <mxGeometry relative="1" as="geometry" />
        </mxCell>
        <mxCell id="iXmqzpFQKqinNQqxrl1--1" value="&lt;p&gt;histograms.py&lt;/p&gt;" style="ellipse;whiteSpace=wrap;html=1;" parent="WIyWlLk6GJQsqaUBKTNV-1" vertex="1">
          <mxGeometry x="39.96" y="10" width="120" height="70" as="geometry" />
        </mxCell>
        <mxCell id="iXmqzpFQKqinNQqxrl1--26" style="edgeStyle=orthogonalEdgeStyle;rounded=0;orthogonalLoop=1;jettySize=auto;html=1;entryX=0.5;entryY=0;entryDx=0;entryDy=0;" parent="WIyWlLk6GJQsqaUBKTNV-1" source="iXmqzpFQKqinNQqxrl1--2" target="iXmqzpFQKqinNQqxrl1--25" edge="1">
          <mxGeometry relative="1" as="geometry" />
        </mxCell>
        <mxCell id="iXmqzpFQKqinNQqxrl1--2" value="import pandas" style="shape=parallelogram;perimeter=parallelogramPerimeter;whiteSpace=wrap;html=1;fixedSize=1;" parent="WIyWlLk6GJQsqaUBKTNV-1" vertex="1">
          <mxGeometry x="39.96" y="220" width="120" height="60" as="geometry" />
        </mxCell>
        <mxCell id="ebi25rhOZYfi02CDMm35-1" style="edgeStyle=orthogonalEdgeStyle;rounded=0;orthogonalLoop=1;jettySize=auto;html=1;entryX=0.5;entryY=0;entryDx=0;entryDy=0;" parent="WIyWlLk6GJQsqaUBKTNV-1" source="iXmqzpFQKqinNQqxrl1--25" target="ebi25rhOZYfi02CDMm35-0" edge="1">
          <mxGeometry relative="1" as="geometry" />
        </mxCell>
        <mxCell id="iXmqzpFQKqinNQqxrl1--25" value="import pygal" style="shape=parallelogram;perimeter=parallelogramPerimeter;whiteSpace=wrap;html=1;fixedSize=1;" parent="WIyWlLk6GJQsqaUBKTNV-1" vertex="1">
          <mxGeometry x="39.96" y="320" width="120" height="60" as="geometry" />
        </mxCell>
        <mxCell id="iXmqzpFQKqinNQqxrl1--33" style="edgeStyle=orthogonalEdgeStyle;rounded=0;orthogonalLoop=1;jettySize=auto;html=1;entryX=0.5;entryY=0;entryDx=0;entryDy=0;" parent="WIyWlLk6GJQsqaUBKTNV-1" source="iXmqzpFQKqinNQqxrl1--32" target="iXmqzpFQKqinNQqxrl1--2" edge="1">
          <mxGeometry relative="1" as="geometry" />
        </mxCell>
        <mxCell id="iXmqzpFQKqinNQqxrl1--32" value="&lt;font face=&quot;Helvetica&quot;&gt;import os&lt;/font&gt;" style="shape=parallelogram;perimeter=parallelogramPerimeter;whiteSpace=wrap;html=1;fixedSize=1;" parent="WIyWlLk6GJQsqaUBKTNV-1" vertex="1">
          <mxGeometry x="39.96" y="120" width="120" height="60" as="geometry" />
        </mxCell>
        <mxCell id="mG5YyNLUCqAut8_NGiAm-1" value="" style="edgeStyle=orthogonalEdgeStyle;rounded=0;orthogonalLoop=1;jettySize=auto;html=1;" parent="WIyWlLk6GJQsqaUBKTNV-1" source="ebi25rhOZYfi02CDMm35-0" target="mG5YyNLUCqAut8_NGiAm-0" edge="1">
          <mxGeometry relative="1" as="geometry" />
        </mxCell>
        <mxCell id="ebi25rhOZYfi02CDMm35-0" value="Define CSVs" style="shape=parallelogram;perimeter=parallelogramPerimeter;whiteSpace=wrap;html=1;fixedSize=1;" parent="WIyWlLk6GJQsqaUBKTNV-1" vertex="1">
          <mxGeometry x="39.96" y="420" width="120" height="60" as="geometry" />
        </mxCell>
        <mxCell id="mG5YyNLUCqAut8_NGiAm-7" value="" style="edgeStyle=orthogonalEdgeStyle;rounded=0;orthogonalLoop=1;jettySize=auto;html=1;" parent="WIyWlLk6GJQsqaUBKTNV-1" source="ebi25rhOZYfi02CDMm35-2" target="mG5YyNLUCqAut8_NGiAm-6" edge="1">
          <mxGeometry relative="1" as="geometry" />
        </mxCell>
        <mxCell id="mG5YyNLUCqAut8_NGiAm-27" value="finished" style="edgeStyle=orthogonalEdgeStyle;rounded=0;orthogonalLoop=1;jettySize=auto;html=1;" parent="WIyWlLk6GJQsqaUBKTNV-1" source="ebi25rhOZYfi02CDMm35-2" target="mG5YyNLUCqAut8_NGiAm-26" edge="1">
          <mxGeometry relative="1" as="geometry" />
        </mxCell>
        <mxCell id="ebi25rhOZYfi02CDMm35-2" value="Loop&lt;div&gt;Through&lt;br&gt;Years&lt;/div&gt;" style="rhombus;whiteSpace=wrap;html=1;" parent="WIyWlLk6GJQsqaUBKTNV-1" vertex="1">
          <mxGeometry x="200" y="610" width="80" height="80" as="geometry" />
        </mxCell>
        <mxCell id="mG5YyNLUCqAut8_NGiAm-3" value="" style="edgeStyle=orthogonalEdgeStyle;rounded=0;orthogonalLoop=1;jettySize=auto;html=1;" parent="WIyWlLk6GJQsqaUBKTNV-1" source="mG5YyNLUCqAut8_NGiAm-0" target="mG5YyNLUCqAut8_NGiAm-2" edge="1">
          <mxGeometry relative="1" as="geometry" />
        </mxCell>
        <mxCell id="mG5YyNLUCqAut8_NGiAm-0" value="Define Top 3&lt;div&gt;Countries&lt;/div&gt;" style="shape=parallelogram;perimeter=parallelogramPerimeter;whiteSpace=wrap;html=1;fixedSize=1;" parent="WIyWlLk6GJQsqaUBKTNV-1" vertex="1">
          <mxGeometry x="39.96" y="520" width="120" height="60" as="geometry" />
        </mxCell>
        <mxCell id="mG5YyNLUCqAut8_NGiAm-4" style="edgeStyle=orthogonalEdgeStyle;rounded=0;orthogonalLoop=1;jettySize=auto;html=1;" parent="WIyWlLk6GJQsqaUBKTNV-1" source="mG5YyNLUCqAut8_NGiAm-2" target="ebi25rhOZYfi02CDMm35-2" edge="1">
          <mxGeometry relative="1" as="geometry" />
        </mxCell>
        <mxCell id="mG5YyNLUCqAut8_NGiAm-2" value="extract_country_data()" style="rounded=0;whiteSpace=wrap;html=1;" parent="WIyWlLk6GJQsqaUBKTNV-1" vertex="1">
          <mxGeometry x="39.96000000000001" y="620" width="120" height="60" as="geometry" />
        </mxCell>
        <mxCell id="mG5YyNLUCqAut8_NGiAm-9" value="" style="edgeStyle=orthogonalEdgeStyle;rounded=0;orthogonalLoop=1;jettySize=auto;html=1;" parent="WIyWlLk6GJQsqaUBKTNV-1" source="mG5YyNLUCqAut8_NGiAm-6" target="mG5YyNLUCqAut8_NGiAm-8" edge="1">
          <mxGeometry relative="1" as="geometry" />
        </mxCell>
        <mxCell id="mG5YyNLUCqAut8_NGiAm-6" value="Read CSV" style="shape=parallelogram;perimeter=parallelogramPerimeter;whiteSpace=wrap;html=1;fixedSize=1;" parent="WIyWlLk6GJQsqaUBKTNV-1" vertex="1">
          <mxGeometry x="320" y="620" width="120" height="60" as="geometry" />
        </mxCell>
        <mxCell id="mG5YyNLUCqAut8_NGiAm-11" value="" style="edgeStyle=orthogonalEdgeStyle;rounded=0;orthogonalLoop=1;jettySize=auto;html=1;" parent="WIyWlLk6GJQsqaUBKTNV-1" source="mG5YyNLUCqAut8_NGiAm-8" target="mG5YyNLUCqAut8_NGiAm-10" edge="1">
          <mxGeometry relative="1" as="geometry" />
        </mxCell>
        <mxCell id="mG5YyNLUCqAut8_NGiAm-16" value="finished" style="edgeStyle=orthogonalEdgeStyle;rounded=0;orthogonalLoop=1;jettySize=auto;html=1;" parent="WIyWlLk6GJQsqaUBKTNV-1" source="mG5YyNLUCqAut8_NGiAm-8" target="mG5YyNLUCqAut8_NGiAm-15" edge="1">
          <mxGeometry relative="1" as="geometry" />
        </mxCell>
        <mxCell id="mG5YyNLUCqAut8_NGiAm-8" value="If&amp;nbsp;&lt;span style=&quot;background-color: transparent; color: light-dark(rgb(0, 0, 0), rgb(255, 255, 255));&quot;&gt;Country&lt;/span&gt;&lt;div&gt;Found in&lt;/div&gt;&lt;div&gt;Dataset&lt;/div&gt;" style="rhombus;whiteSpace=wrap;html=1;" parent="WIyWlLk6GJQsqaUBKTNV-1" vertex="1">
          <mxGeometry x="480" y="610" width="80" height="80" as="geometry" />
        </mxCell>
        <mxCell id="mG5YyNLUCqAut8_NGiAm-13" value="" style="edgeStyle=orthogonalEdgeStyle;rounded=0;orthogonalLoop=1;jettySize=auto;html=1;" parent="WIyWlLk6GJQsqaUBKTNV-1" source="mG5YyNLUCqAut8_NGiAm-10" target="mG5YyNLUCqAut8_NGiAm-12" edge="1">
          <mxGeometry relative="1" as="geometry" />
        </mxCell>
        <mxCell id="mG5YyNLUCqAut8_NGiAm-10" value="Extract Numerical&lt;div&gt;Values&lt;/div&gt;" style="rounded=0;whiteSpace=wrap;html=1;" parent="WIyWlLk6GJQsqaUBKTNV-1" vertex="1">
          <mxGeometry x="600" y="620" width="120" height="60" as="geometry" />
        </mxCell>
        <mxCell id="mG5YyNLUCqAut8_NGiAm-14" style="edgeStyle=orthogonalEdgeStyle;rounded=0;orthogonalLoop=1;jettySize=auto;html=1;entryX=0.5;entryY=0;entryDx=0;entryDy=0;" parent="WIyWlLk6GJQsqaUBKTNV-1" source="mG5YyNLUCqAut8_NGiAm-12" target="mG5YyNLUCqAut8_NGiAm-8" edge="1">
          <mxGeometry relative="1" as="geometry">
            <Array as="points">
              <mxPoint x="760" y="750" />
              <mxPoint x="760" y="590" />
              <mxPoint x="520" y="590" />
            </Array>
          </mxGeometry>
        </mxCell>
        <mxCell id="mG5YyNLUCqAut8_NGiAm-12" value="Store Values&lt;div&gt;Under Corresponding&lt;/div&gt;&lt;div&gt;Years&lt;/div&gt;" style="rounded=0;whiteSpace=wrap;html=1;" parent="WIyWlLk6GJQsqaUBKTNV-1" vertex="1">
          <mxGeometry x="600" y="720" width="120" height="60" as="geometry" />
        </mxCell>
        <mxCell id="mG5YyNLUCqAut8_NGiAm-18" value="" style="edgeStyle=orthogonalEdgeStyle;rounded=0;orthogonalLoop=1;jettySize=auto;html=1;" parent="WIyWlLk6GJQsqaUBKTNV-1" source="mG5YyNLUCqAut8_NGiAm-15" target="mG5YyNLUCqAut8_NGiAm-17" edge="1">
          <mxGeometry relative="1" as="geometry" />
        </mxCell>
        <mxCell id="mG5YyNLUCqAut8_NGiAm-15" value="Sort Data and&amp;nbsp;&lt;div&gt;Return Extracted&lt;/div&gt;&lt;div&gt;Values&lt;/div&gt;" style="rounded=0;whiteSpace=wrap;html=1;" parent="WIyWlLk6GJQsqaUBKTNV-1" vertex="1">
          <mxGeometry x="460" y="720" width="120" height="60" as="geometry" />
        </mxCell>
        <mxCell id="mG5YyNLUCqAut8_NGiAm-20" value="" style="edgeStyle=orthogonalEdgeStyle;rounded=0;orthogonalLoop=1;jettySize=auto;html=1;" parent="WIyWlLk6GJQsqaUBKTNV-1" source="mG5YyNLUCqAut8_NGiAm-17" target="mG5YyNLUCqAut8_NGiAm-19" edge="1">
          <mxGeometry relative="1" as="geometry" />
        </mxCell>
        <mxCell id="mG5YyNLUCqAut8_NGiAm-17" value="create_line_graph()" style="rounded=0;whiteSpace=wrap;html=1;" parent="WIyWlLk6GJQsqaUBKTNV-1" vertex="1">
          <mxGeometry x="300" y="720" width="120" height="60" as="geometry" />
        </mxCell>
        <mxCell id="mG5YyNLUCqAut8_NGiAm-22" value="" style="edgeStyle=orthogonalEdgeStyle;rounded=0;orthogonalLoop=1;jettySize=auto;html=1;" parent="WIyWlLk6GJQsqaUBKTNV-1" source="mG5YyNLUCqAut8_NGiAm-19" target="mG5YyNLUCqAut8_NGiAm-21" edge="1">
          <mxGeometry relative="1" as="geometry" />
        </mxCell>
        <mxCell id="mG5YyNLUCqAut8_NGiAm-19" value="Create Line Chart" style="rounded=0;whiteSpace=wrap;html=1;" parent="WIyWlLk6GJQsqaUBKTNV-1" vertex="1">
          <mxGeometry x="140" y="720" width="120" height="60" as="geometry" />
        </mxCell>
        <mxCell id="mG5YyNLUCqAut8_NGiAm-24" value="" style="edgeStyle=orthogonalEdgeStyle;rounded=0;orthogonalLoop=1;jettySize=auto;html=1;" parent="WIyWlLk6GJQsqaUBKTNV-1" source="mG5YyNLUCqAut8_NGiAm-21" target="mG5YyNLUCqAut8_NGiAm-23" edge="1">
          <mxGeometry relative="1" as="geometry" />
        </mxCell>
        <mxCell id="mG5YyNLUCqAut8_NGiAm-21" value="Set Graph Titles&lt;div&gt;and Labels&lt;/div&gt;" style="rounded=0;whiteSpace=wrap;html=1;" parent="WIyWlLk6GJQsqaUBKTNV-1" vertex="1">
          <mxGeometry x="140" y="820" width="120" height="60" as="geometry" />
        </mxCell>
        <mxCell id="mG5YyNLUCqAut8_NGiAm-25" style="edgeStyle=orthogonalEdgeStyle;rounded=0;orthogonalLoop=1;jettySize=auto;html=1;" parent="WIyWlLk6GJQsqaUBKTNV-1" source="mG5YyNLUCqAut8_NGiAm-23" edge="1">
          <mxGeometry relative="1" as="geometry">
            <mxPoint x="460" y="850.0000000000002" as="targetPoint" />
          </mxGeometry>
        </mxCell>
        <mxCell id="mG5YyNLUCqAut8_NGiAm-23" value="Add Data to Graph" style="rounded=0;whiteSpace=wrap;html=1;" parent="WIyWlLk6GJQsqaUBKTNV-1" vertex="1">
          <mxGeometry x="300" y="820" width="120" height="60" as="geometry" />
        </mxCell>
        <mxCell id="mG5YyNLUCqAut8_NGiAm-26" value="&lt;p&gt;End&lt;/p&gt;" style="ellipse;whiteSpace=wrap;html=1;" parent="WIyWlLk6GJQsqaUBKTNV-1" vertex="1">
          <mxGeometry x="180" y="500" width="120" height="70" as="geometry" />
        </mxCell>
        <mxCell id="mG5YyNLUCqAut8_NGiAm-29" style="edgeStyle=orthogonalEdgeStyle;rounded=0;orthogonalLoop=1;jettySize=auto;html=1;entryX=0.5;entryY=1;entryDx=0;entryDy=0;" parent="WIyWlLk6GJQsqaUBKTNV-1" source="mG5YyNLUCqAut8_NGiAm-28" target="ebi25rhOZYfi02CDMm35-2" edge="1">
          <mxGeometry relative="1" as="geometry">
            <Array as="points">
              <mxPoint x="500" y="920" />
              <mxPoint x="80" y="920" />
              <mxPoint x="80" y="710" />
              <mxPoint x="240" y="710" />
            </Array>
          </mxGeometry>
        </mxCell>
        <mxCell id="mG5YyNLUCqAut8_NGiAm-28" value="Save as&lt;div&gt;line_{country}&lt;/div&gt;" style="rhombus;whiteSpace=wrap;html=1;" parent="WIyWlLk6GJQsqaUBKTNV-1" vertex="1">
          <mxGeometry x="460" y="810" width="80" height="80" as="geometry" />
        </mxCell>
      </root>
    </mxGraphModel>
  </diagram>
</mxfile>
